<mxfile host="app.diagrams.net" modified="2021-12-29T14:43:41.691Z" agent="5.0 (Macintosh; Intel Mac OS X 10_15_7) AppleWebKit/605.1.15 (KHTML, like Gecko) Version/15.2 Safari/605.1.15" etag="_aQ91Qqw4PcH-X2kkP2X" version="16.1.0" type="github" pages="3">
  <diagram id="6LURawLXkcAlEE9YDqgw" name="pigs schema">
    <mxGraphModel dx="1426" dy="825" grid="1" gridSize="10" guides="1" tooltips="1" connect="1" arrows="1" fold="1" page="1" pageScale="1" pageWidth="850" pageHeight="1100" background="#333333" math="0" shadow="0">
      <root>
        <mxCell id="0" />
        <mxCell id="1" parent="0" />
        <mxCell id="BdYwd6LRBAAUdGtZzh2q-3" value="Fist Little Pig" style="swimlane;fontStyle=0;childLayout=stackLayout;horizontal=1;startSize=30;horizontalStack=0;resizeParent=1;resizeParentMax=0;resizeLast=0;collapsible=1;marginBottom=0;fontFamily=Comic Sans MS;fontColor=#FFFFFF;labelBackgroundColor=none;fillColor=#FFB570;strokeColor=#FFB570;" parent="1" vertex="1">
          <mxGeometry x="120" y="120" width="190" height="90" as="geometry" />
        </mxCell>
        <mxCell id="BdYwd6LRBAAUdGtZzh2q-4" value="+ func getMaterial() “straw”" style="text;strokeColor=none;fillColor=none;align=left;verticalAlign=middle;spacingLeft=4;spacingRight=4;overflow=hidden;points=[[0,0.5],[1,0.5]];portConstraint=eastwest;rotatable=0;fontFamily=Comic Sans MS;fontColor=#FFB570;" parent="BdYwd6LRBAAUdGtZzh2q-3" vertex="1">
          <mxGeometry y="30" width="190" height="30" as="geometry" />
        </mxCell>
        <mxCell id="BdYwd6LRBAAUdGtZzh2q-5" value="+ func buildHouse() house" style="text;strokeColor=none;fillColor=none;align=left;verticalAlign=middle;spacingLeft=4;spacingRight=4;overflow=hidden;points=[[0,0.5],[1,0.5]];portConstraint=eastwest;rotatable=0;fontFamily=Comic Sans MS;fontColor=#FFFFFF;" parent="BdYwd6LRBAAUdGtZzh2q-3" vertex="1">
          <mxGeometry y="60" width="190" height="30" as="geometry" />
        </mxCell>
        <mxCell id="BdYwd6LRBAAUdGtZzh2q-7" value="Second Little Pig" style="swimlane;fontStyle=0;childLayout=stackLayout;horizontal=1;startSize=30;horizontalStack=0;resizeParent=1;resizeParentMax=0;resizeLast=0;collapsible=1;marginBottom=0;fontFamily=Comic Sans MS;fontColor=#FFFFFF;labelBackgroundColor=none;fillColor=#FFB570;strokeColor=#FFB570;" parent="1" vertex="1">
          <mxGeometry x="360" y="120" width="190" height="90" as="geometry" />
        </mxCell>
        <mxCell id="BdYwd6LRBAAUdGtZzh2q-8" value="+ func getMaterial() “sticks”" style="text;strokeColor=none;fillColor=none;align=left;verticalAlign=middle;spacingLeft=4;spacingRight=4;overflow=hidden;points=[[0,0.5],[1,0.5]];portConstraint=eastwest;rotatable=0;fontFamily=Comic Sans MS;fontColor=#FFB570;" parent="BdYwd6LRBAAUdGtZzh2q-7" vertex="1">
          <mxGeometry y="30" width="190" height="30" as="geometry" />
        </mxCell>
        <mxCell id="BdYwd6LRBAAUdGtZzh2q-9" value="+ func buildHouse() house" style="text;strokeColor=none;fillColor=none;align=left;verticalAlign=middle;spacingLeft=4;spacingRight=4;overflow=hidden;points=[[0,0.5],[1,0.5]];portConstraint=eastwest;rotatable=0;fontFamily=Comic Sans MS;fontColor=#FFFFFF;" parent="BdYwd6LRBAAUdGtZzh2q-7" vertex="1">
          <mxGeometry y="60" width="190" height="30" as="geometry" />
        </mxCell>
        <mxCell id="BdYwd6LRBAAUdGtZzh2q-10" value="Third Little Pig" style="swimlane;fontStyle=0;childLayout=stackLayout;horizontal=1;startSize=30;horizontalStack=0;resizeParent=1;resizeParentMax=0;resizeLast=0;collapsible=1;marginBottom=0;fontFamily=Comic Sans MS;fontColor=#FFFFFF;labelBackgroundColor=none;fillColor=#FFB570;strokeColor=#FFB570;" parent="1" vertex="1">
          <mxGeometry x="600" y="120" width="190" height="90" as="geometry" />
        </mxCell>
        <mxCell id="BdYwd6LRBAAUdGtZzh2q-11" value="+ func getMaterial() “bricks”" style="text;strokeColor=none;fillColor=none;align=left;verticalAlign=middle;spacingLeft=4;spacingRight=4;overflow=hidden;points=[[0,0.5],[1,0.5]];portConstraint=eastwest;rotatable=0;fontFamily=Comic Sans MS;fontColor=#FFB570;whiteSpace=wrap;" parent="BdYwd6LRBAAUdGtZzh2q-10" vertex="1">
          <mxGeometry y="30" width="190" height="30" as="geometry" />
        </mxCell>
        <mxCell id="BdYwd6LRBAAUdGtZzh2q-12" value="+ func buildHouse() house" style="text;strokeColor=none;fillColor=none;align=left;verticalAlign=middle;spacingLeft=4;spacingRight=4;overflow=hidden;points=[[0,0.5],[1,0.5]];portConstraint=eastwest;rotatable=0;fontFamily=Comic Sans MS;fontColor=#FFFFFF;" parent="BdYwd6LRBAAUdGtZzh2q-10" vertex="1">
          <mxGeometry y="60" width="190" height="30" as="geometry" />
        </mxCell>
      </root>
    </mxGraphModel>
  </diagram>
  <diagram name="go routine" id="-lwiiFQUhqTISK_vupX6">
    <mxGraphModel dx="1426" dy="825" grid="1" gridSize="10" guides="1" tooltips="1" connect="1" arrows="1" fold="1" page="1" pageScale="1" pageWidth="850" pageHeight="1100" background="#333333" math="0" shadow="0">
      <root>
        <mxCell id="TVTowLZPtIOjLhO0LXTV-0" />
        <mxCell id="TVTowLZPtIOjLhO0LXTV-1" parent="TVTowLZPtIOjLhO0LXTV-0" />
        <mxCell id="yoTd0m3ou_iUn9x51lEp-3" value="" style="edgeStyle=orthogonalEdgeStyle;rounded=0;orthogonalLoop=1;jettySize=auto;html=1;fontFamily=Comic Sans MS;fontColor=#FFFFFF;labelBackgroundColor=#FFFFFF;labelBorderColor=#FFFFFF;strokeColor=#FFFFFF;" parent="TVTowLZPtIOjLhO0LXTV-1" source="yoTd0m3ou_iUn9x51lEp-0" target="yoTd0m3ou_iUn9x51lEp-2" edge="1">
          <mxGeometry relative="1" as="geometry" />
        </mxCell>
        <mxCell id="yoTd0m3ou_iUn9x51lEp-0" value="&lt;font color=&quot;#ffffff&quot;&gt;buildHouse(firstLittlePig)&lt;/font&gt;" style="rounded=0;whiteSpace=wrap;html=1;labelBackgroundColor=none;fontFamily=Comic Sans MS;fontColor=#E6E6E6;strokeColor=#FFB570;fillColor=#FFB570;" parent="TVTowLZPtIOjLhO0LXTV-1" vertex="1">
          <mxGeometry x="240" y="320" width="175" height="60" as="geometry" />
        </mxCell>
        <mxCell id="yoTd0m3ou_iUn9x51lEp-5" value="" style="edgeStyle=orthogonalEdgeStyle;rounded=0;orthogonalLoop=1;jettySize=auto;html=1;fontFamily=Comic Sans MS;fontColor=#FFFFFF;strokeColor=#FFFFFF;" parent="TVTowLZPtIOjLhO0LXTV-1" source="yoTd0m3ou_iUn9x51lEp-2" target="yoTd0m3ou_iUn9x51lEp-4" edge="1">
          <mxGeometry relative="1" as="geometry" />
        </mxCell>
        <mxCell id="yoTd0m3ou_iUn9x51lEp-2" value="&lt;font color=&quot;#ffffff&quot;&gt;buildHouse(secondLittlePig)&lt;/font&gt;" style="rounded=0;whiteSpace=wrap;html=1;labelBackgroundColor=none;fontFamily=Comic Sans MS;fontColor=#E6E6E6;strokeColor=#FFB570;fillColor=#FFB570;" parent="TVTowLZPtIOjLhO0LXTV-1" vertex="1">
          <mxGeometry x="240" y="440" width="175" height="60" as="geometry" />
        </mxCell>
        <mxCell id="yoTd0m3ou_iUn9x51lEp-4" value="&lt;font color=&quot;#ffffff&quot;&gt;buildHouse(thirdLittlePig)&lt;/font&gt;" style="rounded=0;whiteSpace=wrap;html=1;labelBackgroundColor=none;fontFamily=Comic Sans MS;fontColor=#E6E6E6;strokeColor=#FFB570;fillColor=#FFB570;" parent="TVTowLZPtIOjLhO0LXTV-1" vertex="1">
          <mxGeometry x="240" y="560" width="175" height="60" as="geometry" />
        </mxCell>
        <mxCell id="yoTd0m3ou_iUn9x51lEp-8" value="construction time" style="text;html=1;strokeColor=none;fillColor=none;align=center;verticalAlign=middle;whiteSpace=wrap;rounded=0;labelBackgroundColor=none;fontFamily=Comic Sans MS;fontColor=#FFFFFF;" parent="TVTowLZPtIOjLhO0LXTV-1" vertex="1">
          <mxGeometry x="340" y="390" width="85" height="30" as="geometry" />
        </mxCell>
        <mxCell id="yoTd0m3ou_iUn9x51lEp-10" value="construction time" style="text;html=1;strokeColor=none;fillColor=none;align=center;verticalAlign=middle;whiteSpace=wrap;rounded=0;labelBackgroundColor=none;fontFamily=Comic Sans MS;fontColor=#FFFFFF;" parent="TVTowLZPtIOjLhO0LXTV-1" vertex="1">
          <mxGeometry x="340" y="510" width="85" height="30" as="geometry" />
        </mxCell>
      </root>
    </mxGraphModel>
  </diagram>
  <diagram name="go routine scheduler" id="J3ZlNhkrkssgLfwoRWXY">
    <mxGraphModel dx="1426" dy="825" grid="1" gridSize="10" guides="1" tooltips="1" connect="1" arrows="1" fold="1" page="1" pageScale="1" pageWidth="850" pageHeight="1100" background="#333333" math="0" shadow="0">
      <root>
        <mxCell id="wgVT5BdXWTOKORd8REAm-0" />
        <mxCell id="wgVT5BdXWTOKORd8REAm-1" parent="wgVT5BdXWTOKORd8REAm-0" />
        <mxCell id="wgVT5BdXWTOKORd8REAm-2" value="" style="edgeStyle=orthogonalEdgeStyle;rounded=0;orthogonalLoop=1;jettySize=auto;html=1;fontFamily=Comic Sans MS;fontColor=#FFFFFF;labelBackgroundColor=#FFFFFF;labelBorderColor=#FFFFFF;strokeColor=#FFFFFF;exitX=0.25;exitY=1;exitDx=0;exitDy=0;entryX=0.347;entryY=0.017;entryDx=0;entryDy=0;entryPerimeter=0;" edge="1" parent="wgVT5BdXWTOKORd8REAm-1" source="wgVT5BdXWTOKORd8REAm-3" target="wgVT5BdXWTOKORd8REAm-5">
          <mxGeometry relative="1" as="geometry" />
        </mxCell>
        <mxCell id="wgVT5BdXWTOKORd8REAm-3" value="&lt;font color=&quot;#ffffff&quot;&gt;CPU Core&lt;/font&gt;" style="rounded=0;whiteSpace=wrap;html=1;labelBackgroundColor=none;fontFamily=Comic Sans MS;fontColor=#E6E6E6;strokeColor=#FFB570;fillColor=#FFB570;" vertex="1" parent="wgVT5BdXWTOKORd8REAm-1">
          <mxGeometry x="307.5" y="360" width="175" height="60" as="geometry" />
        </mxCell>
        <mxCell id="wgVT5BdXWTOKORd8REAm-5" value="&lt;font color=&quot;#ffffff&quot;&gt;Go Scheduler&amp;nbsp;&lt;/font&gt;" style="rounded=0;whiteSpace=wrap;html=1;labelBackgroundColor=none;fontFamily=Comic Sans MS;fontColor=#E6E6E6;strokeColor=#FFB570;fillColor=#FFB570;" vertex="1" parent="wgVT5BdXWTOKORd8REAm-1">
          <mxGeometry x="240" y="460" width="320" height="60" as="geometry" />
        </mxCell>
        <mxCell id="wgVT5BdXWTOKORd8REAm-6" value="&lt;font color=&quot;#ffffff&quot;&gt;Goroutine&lt;/font&gt;" style="rounded=0;whiteSpace=wrap;html=1;labelBackgroundColor=none;fontFamily=Comic Sans MS;fontColor=#E6E6E6;strokeColor=#FFB570;fillColor=#FFB570;" vertex="1" parent="wgVT5BdXWTOKORd8REAm-1">
          <mxGeometry x="240" y="560" width="90" height="60" as="geometry" />
        </mxCell>
        <mxCell id="Zx7mxuRMVskyOu66k4hr-1" value="&lt;font color=&quot;#ffffff&quot;&gt;Goroutine&lt;/font&gt;" style="rounded=0;whiteSpace=wrap;html=1;labelBackgroundColor=none;fontFamily=Comic Sans MS;fontColor=#E6E6E6;strokeColor=#FFB570;fillColor=#FFB570;" vertex="1" parent="wgVT5BdXWTOKORd8REAm-1">
          <mxGeometry x="355" y="560" width="90" height="60" as="geometry" />
        </mxCell>
        <mxCell id="Zx7mxuRMVskyOu66k4hr-2" value="&lt;font color=&quot;#ffffff&quot;&gt;Goroutine&lt;/font&gt;" style="rounded=0;whiteSpace=wrap;html=1;labelBackgroundColor=none;fontFamily=Comic Sans MS;fontColor=#E6E6E6;strokeColor=#FFB570;fillColor=#FFB570;" vertex="1" parent="wgVT5BdXWTOKORd8REAm-1">
          <mxGeometry x="470" y="560" width="90" height="60" as="geometry" />
        </mxCell>
        <mxCell id="Zx7mxuRMVskyOu66k4hr-7" value="" style="endArrow=classic;html=1;rounded=0;labelBackgroundColor=#FFFFFF;labelBorderColor=#FFFFFF;fontFamily=Comic Sans MS;fontColor=#FFFFFF;strokeColor=#FFFFFF;exitX=0.622;exitY=0;exitDx=0;exitDy=0;exitPerimeter=0;entryX=0.75;entryY=1;entryDx=0;entryDy=0;" edge="1" parent="wgVT5BdXWTOKORd8REAm-1" source="wgVT5BdXWTOKORd8REAm-5" target="wgVT5BdXWTOKORd8REAm-3">
          <mxGeometry width="50" height="50" relative="1" as="geometry">
            <mxPoint x="320" y="430" as="sourcePoint" />
            <mxPoint x="490" y="420" as="targetPoint" />
          </mxGeometry>
        </mxCell>
        <mxCell id="Zx7mxuRMVskyOu66k4hr-9" value="" style="endArrow=classic;startArrow=classic;html=1;rounded=0;labelBackgroundColor=#FFFFFF;labelBorderColor=#FFFFFF;fontFamily=Comic Sans MS;fontColor=#FFFFFF;strokeColor=#FFFFFF;entryX=0.128;entryY=0.983;entryDx=0;entryDy=0;entryPerimeter=0;" edge="1" parent="wgVT5BdXWTOKORd8REAm-1" target="wgVT5BdXWTOKORd8REAm-5">
          <mxGeometry width="50" height="50" relative="1" as="geometry">
            <mxPoint x="281" y="560" as="sourcePoint" />
            <mxPoint x="310" y="520" as="targetPoint" />
          </mxGeometry>
        </mxCell>
        <mxCell id="Zx7mxuRMVskyOu66k4hr-10" value="" style="endArrow=classic;startArrow=classic;html=1;rounded=0;labelBackgroundColor=#FFFFFF;labelBorderColor=#FFFFFF;fontFamily=Comic Sans MS;fontColor=#FFFFFF;strokeColor=#FFFFFF;entryX=0.5;entryY=1;entryDx=0;entryDy=0;exitX=0.5;exitY=0;exitDx=0;exitDy=0;" edge="1" parent="wgVT5BdXWTOKORd8REAm-1" source="Zx7mxuRMVskyOu66k4hr-1" target="wgVT5BdXWTOKORd8REAm-5">
          <mxGeometry width="50" height="50" relative="1" as="geometry">
            <mxPoint x="291" y="570" as="sourcePoint" />
            <mxPoint x="290.96000000000004" y="528.98" as="targetPoint" />
          </mxGeometry>
        </mxCell>
        <mxCell id="Zx7mxuRMVskyOu66k4hr-11" value="" style="endArrow=classic;startArrow=classic;html=1;rounded=0;labelBackgroundColor=#FFFFFF;labelBorderColor=#FFFFFF;fontFamily=Comic Sans MS;fontColor=#FFFFFF;strokeColor=#FFFFFF;" edge="1" parent="wgVT5BdXWTOKORd8REAm-1">
          <mxGeometry width="50" height="50" relative="1" as="geometry">
            <mxPoint x="519" y="560" as="sourcePoint" />
            <mxPoint x="519" y="520" as="targetPoint" />
          </mxGeometry>
        </mxCell>
      </root>
    </mxGraphModel>
  </diagram>
</mxfile>
